<svg width="100%" height="100%" viewBox="0 0 165 165" version="1.1" xmlns="http://www.w3.org/2000/svg" xmlns:xlink="http://www.w3.org/1999/xlink" xml:space="preserve" xmlns:serif="http://www.serif.com/" style="fill-rule:evenodd;clip-rule:evenodd;stroke-linejoin:round;stroke-miterlimit:2;">
    <defs>
        <linearGradient id="teal-rose-gradient" x1="0%" y1="0%" x2="100%" y2="0%">
            <stop offset="0%" style="stop-color: #33FFFF;" />
            <stop offset="100%" style="stop-color: #FF007F;" />
        </linearGradient>
    </defs>
    <path d="M82.5,0L83.265,80.146L130.992,15.756L84.502,81.045L160.962,57.006L84.975,82.5L160.962,107.994L84.502,83.955L130.992,149.244L83.265,84.854L82.5,165L81.735,84.854L34.008,149.244L80.498,83.955L4.038,107.994L80.025,82.5L4.038,57.006L80.498,81.045L34.008,15.756L81.735,80.146L82.5,0Z" style="fill:url(#teal-rose-gradient);fill-rule:nonzero;"/>
    <path d="M82.5,27.017L82.847,80.308L99.645,29.733L83.507,80.523L115.112,37.614L84.069,80.931L127.386,49.888L84.477,81.492L135.267,65.355L84.692,82.153L137.982,82.5L84.692,82.847L135.267,99.645L84.477,83.507L127.386,115.112L84.069,84.069L115.112,127.386L83.507,84.477L99.645,135.267L82.847,84.692L82.5,137.982L82.153,84.692L65.355,135.267L81.493,84.477L49.888,127.386L80.931,84.069L37.614,115.112L80.523,83.507L29.733,99.645L80.308,82.847L27.017,82.5L80.308,82.153L29.733,65.355L80.523,81.492L37.614,49.888L80.931,80.931L49.888,37.614L81.493,80.523L65.355,29.733L82.153,80.308L82.5,27.017Z" style="fill:url(#teal-rose-gradient);fill-rule:nonzero;"/>
</svg>

