<?xml version="1.0" encoding="UTF-8" standalone="no"?>
<!DOCTYPE svg PUBLIC "-//W3C//DTD SVG 1.1//EN" "http://www.w3.org/Graphics/SVG/1.1/DTD/svg11.dtd">
<svg width="100%" height="100%" viewBox="0 0 357 44" version="1.1" xmlns="http://www.w3.org/2000/svg" xmlns:xlink="http://www.w3.org/1999/xlink" xml:space="preserve" xmlns:serif="http://www.serif.com/" style="fill-rule:evenodd;clip-rule:evenodd;stroke-linejoin:round;stroke-miterlimit:2;">
    <g transform="matrix(1,0,0,1,-409,-1394)">
        <g transform="matrix(1,0,0,1,0,1048.48)">
            <g transform="matrix(1,0,0,-1,-395.333,747.797)">
                <g>
                    <g>
                        <g transform="matrix(1,0,0,1,-1.13687e-13,-1040.48)">
                            <path d="M807.618,1399.21C805.962,1399.21 804.618,1400.56 804.618,1402.21C804.618,1403.87 805.962,1405.21 807.618,1405.21L957.618,1405.21C959.274,1405.21 960.618,1403.87 960.618,1402.21C960.618,1400.56 959.274,1399.21 957.618,1399.21L807.618,1399.21Z" style="fill:url(#_Linear1);"/>
                        </g>
                        <g transform="matrix(0.73,0,0,0.736667,258.557,-652.233)">
                            <path d="M807.618,1398.14C805.35,1398.14 803.509,1399.97 803.509,1402.21C803.509,1404.46 805.35,1406.29 807.618,1406.29L957.618,1406.29C959.886,1406.29 961.728,1404.46 961.728,1402.21C961.728,1399.97 959.886,1398.14 957.618,1398.14L807.618,1398.14Z" style="fill:url(#_Linear2);"/>
                        </g>
                        <g transform="matrix(0.5,0,0,0.5,478.809,-302.376)">
                            <path d="M807.618,1396.21C804.307,1396.21 801.618,1398.9 801.618,1402.21C801.618,1405.53 804.307,1408.21 807.618,1408.21L957.618,1408.21C960.93,1408.21 963.618,1405.53 963.618,1402.21C963.618,1398.9 960.93,1396.21 957.618,1396.21L807.618,1396.21Z" style="fill:url(#_Linear3);"/>
                        </g>
                    </g>
                </g>
            </g>
            <g transform="matrix(-1,0,-0,-1,1569.9,747.297)">
                <g>
                    <g>
                        <g transform="matrix(1,0,0,1,-1.13687e-13,-1040.48)">
                            <path d="M807.618,1405.21C805.962,1405.21 804.618,1403.87 804.618,1402.21C804.618,1400.56 805.962,1399.21 807.618,1399.21L957.618,1399.21C959.274,1399.21 960.618,1400.56 960.618,1402.21C960.618,1403.87 959.274,1405.21 957.618,1405.21L807.618,1405.21Z" style="fill:url(#_Linear4);"/>
                        </g>
                        <g transform="matrix(0.73,0,0,0.736667,258.557,-652.233)">
                            <path d="M807.618,1406.29C805.35,1406.29 803.509,1404.46 803.509,1402.21C803.509,1399.97 805.35,1398.14 807.618,1398.14L957.618,1398.14C959.886,1398.14 961.728,1399.97 961.728,1402.21C961.728,1404.46 959.886,1406.29 957.618,1406.29L807.618,1406.29Z" style="fill:url(#_Linear5);"/>
                        </g>
                        <g transform="matrix(0.5,0,0,0.5,478.809,-302.376)">
                            <path d="M807.618,1408.21C804.307,1408.21 801.618,1405.53 801.618,1402.21C801.618,1398.9 804.307,1396.21 807.618,1396.21L957.618,1396.21C960.93,1396.21 963.618,1398.9 963.618,1402.21C963.618,1405.53 960.93,1408.21 957.618,1408.21L807.618,1408.21Z" style="fill:url(#_Linear6);"/>
                        </g>
                    </g>
                </g>
            </g>
        </g>
    </g>
    <defs>
        <linearGradient id="_Linear1" x1="0" y1="0" x2="1" y2="0" gradientUnits="userSpaceOnUse" gradientTransform="matrix(150,0,0,2e-06,807.618,1402.21)"><stop offset="0" style="stop-color:white;stop-opacity:1"/><stop offset="0.5" style="stop-color:rgb(255,41,127);stop-opacity:1"/><stop offset="1" style="stop-color:white;stop-opacity:1"/></linearGradient>
        <linearGradient id="_Linear2" x1="0" y1="0" x2="1" y2="0" gradientUnits="userSpaceOnUse" gradientTransform="matrix(150,0,0,2e-06,807.618,1402.21)"><stop offset="0" style="stop-color:white;stop-opacity:1"/><stop offset="0.5" style="stop-color:rgb(255,41,127);stop-opacity:1"/><stop offset="1" style="stop-color:white;stop-opacity:1"/></linearGradient>
        <linearGradient id="_Linear3" x1="0" y1="0" x2="1" y2="0" gradientUnits="userSpaceOnUse" gradientTransform="matrix(150,0,0,2e-06,807.618,1402.21)"><stop offset="0" style="stop-color:white;stop-opacity:1"/><stop offset="0.5" style="stop-color:rgb(255,41,127);stop-opacity:1"/><stop offset="1" style="stop-color:white;stop-opacity:1"/></linearGradient>
        <linearGradient id="_Linear4" x1="0" y1="0" x2="1" y2="0" gradientUnits="userSpaceOnUse" gradientTransform="matrix(150,0,0,2e-06,807.618,1402.21)"><stop offset="0" style="stop-color:white;stop-opacity:1"/><stop offset="0.5" style="stop-color:rgb(255,41,127);stop-opacity:1"/><stop offset="1" style="stop-color:white;stop-opacity:1"/></linearGradient>
        <linearGradient id="_Linear5" x1="0" y1="0" x2="1" y2="0" gradientUnits="userSpaceOnUse" gradientTransform="matrix(150,0,0,2e-06,807.618,1402.21)"><stop offset="0" style="stop-color:white;stop-opacity:1"/><stop offset="0.5" style="stop-color:rgb(255,41,127);stop-opacity:1"/><stop offset="1" style="stop-color:white;stop-opacity:1"/></linearGradient>
        <linearGradient id="_Linear6" x1="0" y1="0" x2="1" y2="0" gradientUnits="userSpaceOnUse" gradientTransform="matrix(150,0,0,2e-06,807.618,1402.21)"><stop offset="0" style="stop-color:white;stop-opacity:1"/><stop offset="0.5" style="stop-color:rgb(255,41,127);stop-opacity:1"/><stop offset="1" style="stop-color:white;stop-opacity:1"/></linearGradient>
    </defs>
</svg>
